<svg width="15" height="15" viewBox="0 0 15 15" fill="none" xmlns="http://www.w3.org/2000/svg">
<path d="M13.125 0H6.875C6.37772 0 5.90081 0.197544 5.54917 0.549175C5.19754 0.900806 5 1.37772 5 1.875V2.5C5 2.66576 5.06585 2.82473 5.18306 2.94194C5.30027 3.05915 5.45924 3.125 5.625 3.125C5.79076 3.125 5.94973 3.05915 6.06694 2.94194C6.18415 2.82473 6.25 2.66576 6.25 2.5V1.875C6.25 1.70924 6.31585 1.55027 6.43306 1.43306C6.55027 1.31585 6.70924 1.25 6.875 1.25H13.125C13.2908 1.25 13.4497 1.31585 13.5669 1.43306C13.6842 1.55027 13.75 1.70924 13.75 1.875V13.125C13.75 13.2908 13.6842 13.4497 13.5669 13.5669C13.4497 13.6842 13.2908 13.75 13.125 13.75H6.875C6.70924 13.75 6.55027 13.6842 6.43306 13.5669C6.31585 13.4497 6.25 13.2908 6.25 13.125V12.5C6.25 12.3342 6.18415 12.1753 6.06694 12.0581C5.94973 11.9408 5.79076 11.875 5.625 11.875C5.45924 11.875 5.30027 11.9408 5.18306 12.0581C5.06585 12.1753 5 12.3342 5 12.5V13.125C5 13.6223 5.19754 14.0992 5.54917 14.4508C5.90081 14.8025 6.37772 15 6.875 15H13.125C13.6223 15 14.0992 14.8025 14.4508 14.4508C14.8025 14.0992 15 13.6223 15 13.125V1.875C15 1.37772 14.8025 0.900806 14.4508 0.549175C14.0992 0.197544 13.6223 0 13.125 0Z" fill="#59A5FF"/>
<path d="M8.05 9.71288C7.93359 9.82999 7.86825 9.98839 7.86825 10.1535C7.86825 10.3186 7.93359 10.477 8.05 10.5941C8.1671 10.7105 8.32551 10.7759 8.49062 10.7759C8.65574 10.7759 8.81415 10.7105 8.93125 10.5941L10.7 8.82538C11.0511 8.47382 11.2484 7.99726 11.2484 7.50038C11.2484 7.00351 11.0511 6.52695 10.7 6.17538L8.93125 4.40663C8.81169 4.30424 8.65789 4.25074 8.50059 4.25681C8.34329 4.26289 8.19408 4.3281 8.08277 4.43941C7.97146 4.55072 7.90626 4.69993 7.90018 4.85723C7.8941 5.01452 7.94761 5.16832 8.05 5.28788L9.63125 6.87538H0.625C0.45924 6.87538 0.300269 6.94123 0.183058 7.05844C0.0658481 7.17565 0 7.33462 0 7.50038C0 7.66614 0.0658481 7.82512 0.183058 7.94233C0.300269 8.05954 0.45924 8.12538 0.625 8.12538H9.63125L8.05 9.71288Z" fill="#59A5FF"/>
</svg>
