<svg width="117" height="46" viewBox="0 0 117 46" fill="none" xmlns="http://www.w3.org/2000/svg">
<path d="M44.187 13.0437V1H1V44.4954H44.187V32.0602" stroke="#FFD800" stroke-width="1.85087"/>
<path d="M34.7753 17.2171V25.2129H33.4822V24.4693C33.2595 24.7423 32.9829 24.9471 32.6525 25.0836C32.3292 25.2201 31.97 25.2883 31.5749 25.2883C31.0217 25.2883 30.5224 25.1662 30.077 24.9219C29.6388 24.6777 29.2939 24.3329 29.0425 23.8874C28.7911 23.4349 28.6653 22.9176 28.6653 22.3357C28.6653 21.7538 28.7911 21.2401 29.0425 20.7947C29.2939 20.3493 29.6388 20.0045 30.077 19.7602C30.5224 19.516 31.0217 19.3939 31.5749 19.3939C31.9556 19.3939 32.304 19.4585 32.6201 19.5878C32.9362 19.7171 33.2056 19.9111 33.4283 20.1697V17.2171H34.7753ZM31.7365 24.1353C32.0598 24.1353 32.3507 24.0635 32.6094 23.9198C32.868 23.7689 33.0727 23.557 33.2236 23.284C33.3744 23.011 33.4499 22.6949 33.4499 22.3357C33.4499 21.9765 33.3744 21.6604 33.2236 21.3874C33.0727 21.1144 32.868 20.9061 32.6094 20.7624C32.3507 20.6115 32.0598 20.5361 31.7365 20.5361C31.4132 20.5361 31.1223 20.6115 30.8636 20.7624C30.605 20.9061 30.4003 21.1144 30.2494 21.3874C30.0986 21.6604 30.0231 21.9765 30.0231 22.3357C30.0231 22.6949 30.0986 23.011 30.2494 23.284C30.4003 23.557 30.605 23.7689 30.8636 23.9198C31.1223 24.0635 31.4132 24.1353 31.7365 24.1353ZM39.1237 25.2883C38.5418 25.2883 38.0174 25.1626 37.5504 24.9112C37.0834 24.6597 36.7171 24.3113 36.4512 23.8659C36.1926 23.4133 36.0633 22.9032 36.0633 22.3357C36.0633 21.7682 36.1926 21.2617 36.4512 20.8163C36.7171 20.3709 37.0834 20.0225 37.5504 19.771C38.0174 19.5196 38.5418 19.3939 39.1237 19.3939C39.7128 19.3939 40.2408 19.5196 40.7078 19.771C41.1747 20.0225 41.5375 20.3709 41.7961 20.8163C42.0619 21.2617 42.1948 21.7682 42.1948 22.3357C42.1948 22.9032 42.0619 23.4133 41.7961 23.8659C41.5375 24.3113 41.1747 24.6597 40.7078 24.9112C40.2408 25.1626 39.7128 25.2883 39.1237 25.2883ZM39.1237 24.1353C39.6194 24.1353 40.0289 23.9701 40.3521 23.6396C40.6754 23.3091 40.8371 22.8745 40.8371 22.3357C40.8371 21.7969 40.6754 21.3623 40.3521 21.0318C40.0289 20.7013 39.6194 20.5361 39.1237 20.5361C38.628 20.5361 38.2185 20.7013 37.8952 21.0318C37.5791 21.3623 37.4211 21.7969 37.4211 22.3357C37.4211 22.8745 37.5791 23.3091 37.8952 23.6396C38.2185 23.9701 38.628 24.1353 39.1237 24.1353ZM50.7459 19.3939C51.4715 19.3939 52.0462 19.6058 52.4701 20.0296C52.8939 20.4463 53.1059 21.0749 53.1059 21.9154V25.2129H51.7589V22.0879C51.7589 21.585 51.6475 21.2078 51.4248 20.9564C51.2021 20.6978 50.8824 20.5684 50.4657 20.5684C50.0131 20.5684 49.6504 20.7193 49.3774 21.021C49.1044 21.3156 48.9679 21.7394 48.9679 22.2926V25.2129H47.6209V22.0879C47.6209 21.585 47.5095 21.2078 47.2868 20.9564C47.0641 20.6978 46.7444 20.5684 46.3278 20.5684C45.868 20.5684 45.5016 20.7157 45.2286 21.0103C44.9628 21.3048 44.8299 21.7322 44.8299 22.2926V25.2129H43.4829V19.4585H44.7652V20.1913C44.9808 19.9327 45.2502 19.7351 45.5734 19.5986C45.8967 19.4621 46.2559 19.3939 46.651 19.3939C47.0821 19.3939 47.4628 19.4765 47.7933 19.6417C48.1309 19.7998 48.3968 20.0368 48.5907 20.3529C48.8278 20.0512 49.1331 19.8177 49.5067 19.6525C49.8802 19.4801 50.2933 19.3939 50.7459 19.3939ZM60.2893 22.368C60.2893 22.4614 60.2821 22.5943 60.2678 22.7667H55.7526C55.8316 23.1906 56.0364 23.5282 56.3669 23.7797C56.7045 24.0239 57.1212 24.1461 57.6169 24.1461C58.2491 24.1461 58.7699 23.9377 59.1794 23.5211L59.9014 24.3508C59.6427 24.6597 59.3159 24.8932 58.9208 25.0513C58.5256 25.2093 58.0802 25.2883 57.5845 25.2883C56.9523 25.2883 56.3956 25.1626 55.9143 24.9112C55.4329 24.6597 55.0594 24.3113 54.7936 23.8659C54.5349 23.4133 54.4056 22.9032 54.4056 22.3357C54.4056 21.7754 54.5313 21.2725 54.7828 20.8271C55.0414 20.3745 55.397 20.0225 55.8496 19.771C56.3022 19.5196 56.8123 19.3939 57.3798 19.3939C57.9401 19.3939 58.4394 19.5196 58.8777 19.771C59.3231 20.0153 59.6679 20.3637 59.9121 20.8163C60.1636 21.2617 60.2893 21.7789 60.2893 22.368ZM57.3798 20.4715C56.9488 20.4715 56.5824 20.6008 56.2806 20.8594C55.9861 21.1108 55.8065 21.4485 55.7418 21.8723H59.007C58.9495 21.4557 58.7735 21.118 58.4789 20.8594C58.1844 20.6008 57.818 20.4715 57.3798 20.4715ZM64.1694 25.2883C63.5875 25.2883 63.0631 25.1626 62.5961 24.9112C62.1292 24.6597 61.7628 24.3113 61.497 23.8659C61.2383 23.4133 61.109 22.9032 61.109 22.3357C61.109 21.7682 61.2383 21.2617 61.497 20.8163C61.7628 20.3709 62.1292 20.0225 62.5961 19.771C63.0631 19.5196 63.5875 19.3939 64.1694 19.3939C64.7585 19.3939 65.2865 19.5196 65.7535 19.771C66.2204 20.0225 66.5832 20.3709 66.8419 20.8163C67.1077 21.2617 67.2406 21.7682 67.2406 22.3357C67.2406 22.9032 67.1077 23.4133 66.8419 23.8659C66.5832 24.3113 66.2204 24.6597 65.7535 24.9112C65.2865 25.1626 64.7585 25.2883 64.1694 25.2883ZM64.1694 24.1353C64.6651 24.1353 65.0746 23.9701 65.3979 23.6396C65.7212 23.3091 65.8828 22.8745 65.8828 22.3357C65.8828 21.7969 65.7212 21.3623 65.3979 21.0318C65.0746 20.7013 64.6651 20.5361 64.1694 20.5361C63.6737 20.5361 63.2642 20.7013 62.941 21.0318C62.6249 21.3623 62.4668 21.7969 62.4668 22.3357C62.4668 22.8745 62.6249 23.3091 62.941 23.6396C63.2642 23.9701 63.6737 24.1353 64.1694 24.1353ZM68.3429 21.6568H71.3063V22.7775H68.3429V21.6568ZM75.7302 19.7362C76.2576 19.7362 76.7275 19.8511 77.1399 20.081C77.5591 20.3109 77.8871 20.6354 78.1237 21.0546C78.3604 21.4738 78.4787 21.9573 78.4787 22.505C78.4787 23.0526 78.3604 23.5394 78.1237 23.9654C77.8871 24.3846 77.5591 24.7092 77.1399 24.9391C76.7275 25.1689 76.2576 25.2839 75.7302 25.2839C74.9999 25.2839 74.4218 25.0405 73.9959 24.5537V27.1805H72.7281V19.797H73.935V20.507C74.1446 20.25 74.4016 20.0573 74.7058 19.9289C75.0169 19.8004 75.3583 19.7362 75.7302 19.7362ZM75.5882 24.1987C76.0547 24.1987 76.4367 24.0432 76.7342 23.7321C77.0385 23.4211 77.1906 23.0121 77.1906 22.505C77.1906 21.9978 77.0385 21.5888 76.7342 21.2778C76.4367 20.9667 76.0547 20.8112 75.5882 20.8112C75.2839 20.8112 75.0101 20.8822 74.7667 21.0242C74.5233 21.1594 74.3306 21.3555 74.1886 21.6124C74.0466 21.8694 73.9756 22.1669 73.9756 22.505C73.9756 22.843 74.0466 23.1405 74.1886 23.3975C74.3306 23.6544 74.5233 23.8538 74.7667 23.9958C75.0101 24.1311 75.2839 24.1987 75.5882 24.1987ZM81.6807 19.7362C82.4785 19.7362 83.087 19.9289 83.5062 20.3143C83.9322 20.6929 84.1452 21.2676 84.1452 22.0384V25.2129H82.9484V24.5537C82.7929 24.7903 82.5698 24.9729 82.279 25.1013C81.9951 25.223 81.6502 25.2839 81.2445 25.2839C80.8389 25.2839 80.4839 25.2163 80.1796 25.081C79.8754 24.9391 79.6387 24.7464 79.4697 24.5029C79.3074 24.2528 79.2263 23.9722 79.2263 23.6611C79.2263 23.1743 79.4054 22.7855 79.7638 22.4948C80.1289 22.1973 80.7003 22.0486 81.4778 22.0486H82.8774V21.9674C82.8774 21.5888 82.7625 21.298 82.5326 21.0952C82.3095 20.8924 81.9748 20.7909 81.5285 20.7909C81.2243 20.7909 80.9234 20.8383 80.6259 20.9329C80.3351 21.0276 80.0883 21.1594 79.8855 21.3285L79.3885 20.4055C79.6725 20.1892 80.014 20.0235 80.4129 19.9086C80.8118 19.7936 81.2344 19.7362 81.6807 19.7362ZM81.5082 24.361C81.826 24.361 82.1066 24.29 82.35 24.148C82.6002 23.9992 82.776 23.7896 82.8774 23.5192V22.8904H81.5691C80.8389 22.8904 80.4737 23.1304 80.4737 23.6104C80.4737 23.8403 80.565 24.0229 80.7476 24.1581C80.9301 24.2933 81.1837 24.361 81.5082 24.361ZM86.9791 20.5881C87.3442 20.0201 87.9866 19.7362 88.9061 19.7362V20.9431C88.7979 20.9228 88.6999 20.9126 88.612 20.9126C88.1184 20.9126 87.733 21.058 87.4558 21.3488C87.1786 21.6327 87.04 22.0452 87.04 22.5861V25.2129H85.7722V19.797H86.9791V20.5881ZM93.4353 24.9188C93.2865 25.0405 93.104 25.1318 92.8876 25.1926C92.678 25.2535 92.4549 25.2839 92.2182 25.2839C91.6232 25.2839 91.1634 25.1284 90.8389 24.8173C90.5143 24.5063 90.3521 24.0533 90.3521 23.4583V20.8518H89.4596V19.8376H90.3521V18.6002H91.6198V19.8376H93.0702V20.8518H91.6198V23.4279C91.6198 23.6916 91.6841 23.8944 91.8125 24.0364C91.941 24.1716 92.1269 24.2392 92.3703 24.2392C92.6543 24.2392 92.891 24.1649 93.0803 24.0161L93.4353 24.9188ZM97.5512 19.7362C98.2341 19.7362 98.7818 19.9356 99.1942 20.3345C99.6067 20.7335 99.8129 21.3251 99.8129 22.1094V25.2129H98.5451V22.2717C98.5451 21.7984 98.4336 21.4434 98.2105 21.2068C97.9873 20.9634 97.6695 20.8416 97.2571 20.8416C96.7906 20.8416 96.4221 20.9836 96.1516 21.2676C95.8811 21.5448 95.7459 21.9471 95.7459 22.4745V25.2129H94.4782V19.797H95.6851V20.4968C95.8947 20.2466 96.1584 20.0573 96.4762 19.9289C96.7939 19.8004 97.1523 19.7362 97.5512 19.7362ZM106.562 22.5354C106.562 22.6233 106.555 22.7484 106.542 22.9106H102.292C102.367 23.3096 102.559 23.6273 102.87 23.864C103.188 24.0939 103.58 24.2088 104.047 24.2088C104.642 24.2088 105.132 24.0127 105.517 23.6206L106.197 24.4015C105.953 24.6923 105.646 24.912 105.274 25.0608C104.902 25.2095 104.483 25.2839 104.016 25.2839C103.421 25.2839 102.897 25.1656 102.444 24.9289C101.991 24.6923 101.64 24.3643 101.39 23.9451C101.146 23.5192 101.024 23.0391 101.024 22.505C101.024 21.9776 101.143 21.5043 101.379 21.0851C101.623 20.6591 101.957 20.3278 102.383 20.0911C102.809 19.8545 103.289 19.7362 103.824 19.7362C104.351 19.7362 104.821 19.8545 105.233 20.0911C105.653 20.321 105.977 20.6489 106.207 21.0749C106.444 21.4941 106.562 21.9809 106.562 22.5354ZM103.824 20.7504C103.418 20.7504 103.073 20.8721 102.789 21.1155C102.512 21.3521 102.343 21.6699 102.282 22.0688H105.355C105.301 21.6767 105.135 21.3589 104.858 21.1155C104.581 20.8721 104.236 20.7504 103.824 20.7504ZM108.987 20.5881C109.352 20.0201 109.994 19.7362 110.914 19.7362V20.9431C110.805 20.9228 110.707 20.9126 110.62 20.9126C110.126 20.9126 109.741 21.058 109.463 21.3488C109.186 21.6327 109.048 22.0452 109.048 22.5861V25.2129H107.78V19.797H108.987V20.5881ZM113.682 25.2839C113.243 25.2839 112.814 25.2264 112.394 25.1115C111.975 24.9965 111.64 24.8512 111.39 24.6754L111.877 23.7119C112.12 23.8741 112.411 24.006 112.749 24.1074C113.094 24.2021 113.432 24.2494 113.764 24.2494C114.521 24.2494 114.899 24.0499 114.899 23.651C114.899 23.4617 114.801 23.3298 114.605 23.2555C114.416 23.1811 114.108 23.1101 113.682 23.0425C113.236 22.9749 112.871 22.8971 112.587 22.8092C112.31 22.7213 112.066 22.5692 111.857 22.3528C111.654 22.1297 111.553 21.822 111.553 21.4299C111.553 20.916 111.766 20.507 112.191 20.2027C112.624 19.8917 113.206 19.7362 113.936 19.7362C114.308 19.7362 114.68 19.7801 115.052 19.868C115.423 19.9491 115.728 20.0607 115.964 20.2027L115.478 21.1662C115.018 20.8957 114.501 20.7605 113.926 20.7605C113.554 20.7605 113.27 20.818 113.074 20.9329C112.885 21.0411 112.79 21.1865 112.79 21.369C112.79 21.5719 112.891 21.7172 113.094 21.8051C113.304 21.8863 113.625 21.964 114.058 22.0384C114.49 22.106 114.845 22.1838 115.123 22.2717C115.4 22.3596 115.636 22.5083 115.833 22.7179C116.035 22.9275 116.137 23.225 116.137 23.6104C116.137 24.1175 115.917 24.5232 115.478 24.8275C115.038 25.1318 114.44 25.2839 113.682 25.2839Z" fill="#272727"/>
</svg>
