<svg width="47" height="47" viewBox="0 0 47 47" fill="none" xmlns="http://www.w3.org/2000/svg">
<path d="M20.5526 31.9018C20.1764 31.9018 19.8156 32.0513 19.5495 32.3173C19.2835 32.5834 19.134 32.9442 19.134 33.3205V36.1577C19.134 36.5339 19.2835 36.8947 19.5495 37.1608C19.8156 37.4268 20.1764 37.5763 20.5526 37.5763C20.9289 37.5763 21.2897 37.4268 21.5558 37.1608C21.8218 36.8947 21.9713 36.5339 21.9713 36.1577V33.3205C21.9713 32.9442 21.8218 32.5834 21.5558 32.3173C21.2897 32.0513 20.9289 31.9018 20.5526 31.9018ZM14.8782 31.9018C14.502 31.9018 14.1411 32.0513 13.8751 32.3173C13.609 32.5834 13.4596 32.9442 13.4596 33.3205V36.1577C13.4596 36.5339 13.609 36.8947 13.8751 37.1608C14.1411 37.4268 14.502 37.5763 14.8782 37.5763C15.2544 37.5763 15.6153 37.4268 15.8813 37.1608C16.1473 36.8947 16.2968 36.5339 16.2968 36.1577V33.3205C16.2968 32.9442 16.1473 32.5834 15.8813 32.3173C15.6153 32.0513 15.2544 31.9018 14.8782 31.9018ZM26.2271 31.9018C25.8509 31.9018 25.49 32.0513 25.224 32.3173C24.9579 32.5834 24.8085 32.9442 24.8085 33.3205V36.1577C24.8085 36.5339 24.9579 36.8947 25.224 37.1608C25.49 37.4268 25.8509 37.5763 26.2271 37.5763C26.6033 37.5763 26.9642 37.4268 27.2302 37.1608C27.4963 36.8947 27.6457 36.5339 27.6457 36.1577V33.3205C27.6457 32.9442 27.4963 32.5834 27.2302 32.3173C26.9642 32.0513 26.6033 31.9018 26.2271 31.9018ZM31.9015 31.9018C31.5253 31.9018 31.1645 32.0513 30.8984 32.3173C30.6324 32.5834 30.4829 32.9442 30.4829 33.3205V36.1577C30.4829 36.5339 30.6324 36.8947 30.8984 37.1608C31.1645 37.4268 31.5253 37.5763 31.9015 37.5763C32.2778 37.5763 32.6386 37.4268 32.9047 37.1608C33.1707 36.8947 33.3202 36.5339 33.3202 36.1577V33.3205C33.3202 32.9442 33.1707 32.5834 32.9047 32.3173C32.6386 32.0513 32.2778 31.9018 31.9015 31.9018ZM40.4132 12.0413H6.36652C5.61404 12.0413 4.89238 12.3402 4.3603 12.8723C3.82822 13.4043 3.5293 14.126 3.5293 14.8785V27.646C3.5293 28.3985 3.82822 29.1201 4.3603 29.6522C4.89238 30.1843 5.61404 30.4832 6.36652 30.4832H40.4132C41.1657 30.4832 41.8874 30.1843 42.4194 29.6522C42.9515 29.1201 43.2504 28.3985 43.2504 27.646V14.8785C43.2504 14.126 42.9515 13.4043 42.4194 12.8723C41.8874 12.3402 41.1657 12.0413 40.4132 12.0413ZM36.1574 26.2274H10.6224C10.2461 26.2274 9.88529 26.0779 9.61925 25.8119C9.35321 25.5458 9.20375 25.185 9.20375 24.8088C9.20375 24.4325 9.35321 24.0717 9.61925 23.8057C9.88529 23.5396 10.2461 23.3902 10.6224 23.3902H36.1574C36.5336 23.3902 36.8945 23.5396 37.1605 23.8057C37.4265 24.0717 37.576 24.4325 37.576 24.8088C37.576 25.185 37.4265 25.5458 37.1605 25.8119C36.8945 26.0779 36.5336 26.2274 36.1574 26.2274Z" fill="white"/>
</svg>
