<svg width="40" height="40" viewBox="0 0 40 40" fill="none" xmlns="http://www.w3.org/2000/svg">
<path d="M22.3925 10.2638C21.087 10.2638 19.9447 11.4061 19.9447 12.7116C19.9447 14.0171 21.087 15.1594 22.3925 15.1594C23.698 15.1594 24.8403 14.0171 24.8403 12.7116C24.8403 11.4061 23.698 10.2638 22.3925 10.2638ZM31.3677 3.73633H8.52158C5.7474 3.73633 3.62598 5.85776 3.62598 8.63193V31.4781C3.62598 34.2523 5.7474 36.3737 8.52158 36.3737H31.3677C34.1419 36.3737 36.2633 34.2523 36.2633 31.4781V8.63193C36.2633 5.85776 34.1419 3.73633 31.3677 3.73633ZM32.9996 23.1556L29.8991 20.055C27.9408 18.26 24.8403 18.26 23.0452 20.055L21.5765 21.5237L16.8441 16.7913C14.8859 14.9962 11.7853 14.9962 9.99026 16.7913L6.88971 19.8918V8.63193C6.88971 7.65281 7.54246 7.00006 8.52158 7.00006H31.3677C32.3469 7.00006 32.9996 7.65281 32.9996 8.63193V23.1556Z" fill="white"/>
</svg>
