<svg width="44" height="35" viewBox="0 0 44 35" fill="none" xmlns="http://www.w3.org/2000/svg">
<path d="M21.2035 22.4089C21.1041 22.3982 21.0039 22.3982 20.9046 22.4089H19.5709C19.2461 22.4088 18.9339 22.5351 18.7007 22.7612C18.4675 22.9873 18.3315 23.2953 18.3215 23.62V31.852C18.3215 32.0161 18.3538 32.1785 18.4166 32.3301C18.4794 32.4817 18.5714 32.6194 18.6874 32.7354C18.8034 32.8515 18.9412 32.9435 19.0928 33.0063C19.2443 33.0691 19.4068 33.1014 19.5709 33.1014H20.9046C21.0686 33.1014 21.2311 33.0691 21.3827 33.0063C21.5342 32.9435 21.672 32.8515 21.788 32.7354C21.904 32.6194 21.996 32.4817 22.0588 32.3301C22.1216 32.1785 22.1539 32.0161 22.1539 31.852V23.62C22.1535 23.341 22.0596 23.0701 21.8874 22.8507C21.7151 22.6312 21.4744 22.4757 21.2035 22.4089ZM42.3661 22.3706H41.0324C40.9331 22.3598 40.8328 22.3598 40.7335 22.3706C40.4561 22.4388 40.2105 22.6 40.0375 22.8274C39.8646 23.0547 39.7748 23.3344 39.783 23.62V31.852C39.783 32.0161 39.8154 32.1785 39.8781 32.3301C39.9409 32.4817 40.033 32.6194 40.149 32.7354C40.265 32.8515 40.4027 32.9435 40.5543 33.0063C40.7059 33.0691 40.8683 33.1014 41.0324 33.1014H42.3661C42.6974 33.1014 43.0152 32.9697 43.2495 32.7354C43.4838 32.5011 43.6155 32.1834 43.6155 31.852V23.62C43.6155 23.4559 43.5831 23.2934 43.5204 23.1419C43.4576 22.9903 43.3655 22.8525 43.2495 22.7365C43.1335 22.6205 42.9958 22.5285 42.8442 22.4657C42.6926 22.4029 42.5302 22.3706 42.3661 22.3706ZM23.6869 32.3349C23.6869 32.5382 23.7676 32.7331 23.9114 32.8769C24.0551 33.0206 24.2501 33.1014 24.4534 33.1014H37.4836C37.6869 33.1014 37.8818 33.0206 38.0256 32.8769C38.1693 32.7331 38.2501 32.5382 38.2501 32.3349V29.269H23.6869V32.3349ZM35.9506 24.67H25.9863C25.3765 24.67 24.7916 24.9123 24.3604 25.3435C23.9292 25.7748 23.6869 26.3596 23.6869 26.9695V27.736H38.2501V26.9695C38.2501 26.3596 38.0078 25.7748 37.5766 25.3435C37.1453 24.9123 36.5605 24.67 35.9506 24.67ZM39.783 16.2387C39.783 15.2223 39.3793 14.2475 38.6606 13.5288C37.9418 12.8101 36.967 12.4063 35.9506 12.4063H25.9863C24.9699 12.4063 23.9951 12.8101 23.2764 13.5288C22.5577 14.2475 22.1539 15.2223 22.1539 16.2387V21.1366C22.2689 21.1912 22.3791 21.2553 22.4835 21.3282C22.5879 21.4012 22.6877 21.4806 22.7824 21.5658C22.8789 21.6482 22.9663 21.7407 23.043 21.8417C23.111 21.9183 23.1725 22.0003 23.227 22.087C23.2441 22.1044 23.2571 22.1253 23.2653 22.1483C23.3341 22.2565 23.3955 22.3692 23.4493 22.4856C23.4993 22.5971 23.5403 22.7124 23.5719 22.8305C23.6084 22.9506 23.6341 23.0737 23.6486 23.1984C23.6601 23.331 23.6601 23.4644 23.6486 23.597V23.9036L23.8708 23.7503L24.1391 23.597L24.4074 23.4667L24.6757 23.3594C24.7523 23.3283 24.8319 23.3052 24.9133 23.2904H24.9976L25.2199 23.2444C25.4711 23.1831 25.7279 23.1472 25.9863 23.1371H35.9506C36.1768 23.1378 36.4025 23.1583 36.6251 23.1984L36.8474 23.2444H36.9317C37.0131 23.2592 37.0927 23.2823 37.1693 23.3134L37.4376 23.4207L37.7059 23.551L37.9741 23.7043L38.2501 23.9036V23.62C38.2463 23.5536 38.2463 23.4871 38.2501 23.4207C38.2463 23.3543 38.2463 23.2878 38.2501 23.2214C38.2464 23.1601 38.2464 23.0987 38.2501 23.0374L38.2961 22.8535C38.3277 22.7354 38.3687 22.6201 38.4187 22.5086C38.4724 22.3922 38.5339 22.2795 38.6027 22.1713C38.6108 22.1483 38.6239 22.1274 38.641 22.11C38.6955 22.0233 38.757 21.9413 38.8249 21.8647C38.9017 21.7637 38.989 21.6712 39.0855 21.5888C39.1794 21.5026 39.2793 21.4232 39.3845 21.3512C39.4881 21.2772 39.5985 21.213 39.7141 21.1596L39.783 16.2387ZM11.4232 17.0052H8.04296C8.14762 17.0115 8.25256 17.0115 8.35722 17.0052C9.6436 16.8196 10.8189 16.1734 11.6647 15.1866C12.5106 14.1998 12.9694 12.9395 12.9561 11.6398C11.707 11.6349 10.4953 12.0659 9.52994 12.8585V12.7896C9.53304 12.0774 9.39435 11.3718 9.12195 10.7138C8.84954 10.0558 8.44888 9.45868 7.94332 8.95714C7.43522 9.46475 7.03325 10.0684 6.76085 10.733C6.48844 11.3975 6.35106 12.1097 6.3567 12.8279C5.40348 12.0596 4.21615 11.6403 2.99183 11.6398C2.98974 12.9364 3.45261 14.1908 4.29642 15.1753C5.14024 16.1597 6.30907 16.809 7.59073 17.0052C7.70474 17.0256 7.81996 17.0384 7.93565 17.0435H4.5248L5.83549 21.6424H0.692383V34.6343H2.22535V30.8019H13.7226V34.6343H15.2556V21.6041H10.1125L11.4232 17.0052ZM9.89018 26.9695H6.05777V25.4365H9.89018V26.9695ZM18.3215 8.5739H22.9204L22.1539 0.142578H12.9561L12.1896 8.5739H16.7885V23.62C16.789 23.1047 16.9326 22.5996 17.2033 22.1611C17.474 21.7227 17.8611 21.3679 18.3215 21.1366V8.5739Z" fill="white"/>
</svg>
