<svg width="41" height="32" viewBox="0 0 41 32" fill="none" xmlns="http://www.w3.org/2000/svg">
<path d="M37.7789 26.795C36.422 26.795 35.3176 27.9021 35.3176 29.2627C35.3176 29.6068 35.039 29.8858 34.6946 29.8858C34.3502 29.8858 34.0715 29.6068 34.0715 29.2627V3.92676H6.53168V29.2627C6.53168 29.6068 6.2527 29.8858 5.9086 29.8858C5.56451 29.8858 5.28553 29.6068 5.28553 29.2627C5.28553 27.9021 4.18145 26.795 2.82455 26.795C1.46735 26.795 0.363281 27.9021 0.363281 29.2627C0.363281 30.6196 1.46735 31.7237 2.82456 31.7237H37.7789C39.1358 31.7237 40.2402 30.6196 40.2402 29.2627C40.2402 27.9021 39.1358 26.795 37.7789 26.795ZM32.0094 20.3063C32.0094 20.6504 31.7307 20.9293 31.3863 20.9293C31.0419 20.9293 30.7632 20.6504 30.7632 20.3063V17.5246H28.2752C27.9308 17.5246 27.6521 17.2456 27.6521 16.9015C27.6521 16.5574 27.9308 16.2785 28.2752 16.2785H30.7632V10.4803H24.3554V16.2785H25.8291C26.1735 16.2785 26.4522 16.5574 26.4522 16.9015C26.4522 17.2456 26.1735 17.5246 25.8291 17.5246H21.6352C21.2911 17.5246 21.0121 17.2456 21.0121 16.9015C21.0121 16.5574 21.2911 16.2785 21.6352 16.2785H23.1092V10.4803H9.84634V16.2785H19.2594C19.6035 16.2785 19.8825 16.5574 19.8825 16.9015C19.8825 17.2456 19.6035 17.5246 19.2594 17.5246H9.84634V25.1695H18.0534V21.1539H16.378C16.0339 21.1539 15.7549 20.8749 15.7549 20.5308C15.7549 20.1867 16.0339 19.9077 16.378 19.9077H18.6765C19.0206 19.9077 19.2996 20.1867 19.2996 20.5308V25.1695H23.798C24.1424 25.1695 24.4211 25.4485 24.4211 25.7926C24.4211 26.1367 24.1424 26.4156 23.798 26.4156H9.22327C8.87917 26.4156 8.60019 26.1367 8.60019 25.7926V9.85724C8.60019 9.51315 8.87917 9.23416 9.22327 9.23416H31.3863C31.7307 9.23416 32.0094 9.51315 32.0094 9.85724V20.3063Z" fill="white"/>
<path d="M37.7789 0.0327148C36.422 0.0327148 35.3176 1.13679 35.3176 2.49399C35.3176 7.55804 35.3176 15.6489 35.3176 26.4873C35.973 25.9038 36.8352 25.5487 37.7789 25.5487C38.7036 25.5487 39.6019 25.9179 40.2402 26.4873V2.49399C40.2402 1.15911 39.1539 0.0327148 37.7789 0.0327148ZM2.82456 25.5487C3.768 25.5487 4.63051 25.9038 5.28553 26.4873C5.28553 15.6487 5.28553 7.56907 5.28553 2.49399C5.28553 1.16422 4.20442 0.0327148 2.82456 0.0327148C1.46735 0.0327148 0.363281 1.13679 0.363281 2.49399V26.4873C0.37378 26.478 0.386516 26.4714 0.397089 26.4622C1.05444 25.8897 1.91944 25.5487 2.82456 25.5487Z" fill="white"/>
</svg>
