<svg width="33" height="33" viewBox="0 0 33 33" fill="none" xmlns="http://www.w3.org/2000/svg">
<path d="M32.4507 13.1382L29.7044 10.639L19.1721 1.08173C18.4169 0.406187 17.4391 0.0327148 16.4258 0.0327148C15.4125 0.0327148 14.4347 0.406187 13.6795 1.08173L3.17469 10.6939L0.428351 13.1931C0.243419 13.3807 0.116372 13.6176 0.0623651 13.8755C0.00835789 14.1334 0.0296711 14.4013 0.123762 14.6474C0.217853 14.8935 0.380749 15.1073 0.593017 15.2634C0.805286 15.4194 1.05797 15.5111 1.32091 15.5275C1.66872 15.5118 1.99758 15.3645 2.24094 15.1155L2.69408 14.7036V28.8473C2.69408 29.9398 3.1281 30.9876 3.90066 31.7602C4.67322 32.5328 5.72104 32.9668 6.8136 32.9668H26.038C27.1306 32.9668 28.1784 32.5328 28.9509 31.7602C29.7235 30.9876 30.1575 29.9398 30.1575 28.8473V14.7585L30.6107 15.1705C30.8625 15.3994 31.1904 15.5266 31.5307 15.5275C31.8076 15.5268 32.0777 15.4424 32.3058 15.2854C32.5338 15.1284 32.7091 14.9061 32.8086 14.6478C32.9081 14.3894 32.9271 14.107 32.8633 13.8376C32.7994 13.5682 32.6556 13.3244 32.4507 13.1382Z" fill="white"/>
<path d="M21.339 13.5254C21.5961 13.2901 21.9383 13.1601 22.2933 13.1626C22.6484 13.1652 22.9885 13.3002 23.2419 13.5392C23.4953 13.7782 23.6422 14.1025 23.6516 14.4435C23.6609 14.7846 23.5321 15.1159 23.2922 15.3674L16.0087 24.1213C15.8835 24.251 15.7323 24.355 15.5643 24.4272C15.3963 24.4994 15.2148 24.5383 15.0308 24.5416C14.8467 24.5449 14.6639 24.5125 14.4932 24.4463C14.3225 24.3801 14.1674 24.2815 14.0373 24.1564L9.20723 19.5146C9.07272 19.3941 8.96483 19.2488 8.89 19.0874C8.81518 18.9261 8.77494 18.7518 8.7717 18.5752C8.76845 18.3985 8.80227 18.223 8.87113 18.0592C8.93998 17.8954 9.04247 17.7465 9.17247 17.6216C9.30248 17.4967 9.45734 17.3982 9.62781 17.332C9.79828 17.2658 9.98088 17.2333 10.1647 17.2364C10.3485 17.2396 10.5298 17.2782 10.6978 17.3501C10.8657 17.422 11.0168 17.5257 11.1422 17.655L14.9646 21.3267L21.3043 13.564C21.3157 13.5505 21.3279 13.5376 21.3408 13.5254H21.339Z" fill="#59A5FF"/>
</svg>
